<svg width="187" height="42" viewBox="0 0 187 42" fill="none" xmlns="http://www.w3.org/2000/svg">
<path d="M49.0005 0.000973349V4.11642H58.0888V17.3201H62.8901V4.11642H71.8069V0.000973349H49.0005Z" fill="black"/>
<path d="M97.5285 0.000973349V4.11642H78.8375V6.5171H94.6133V10.6325H78.8375V13.2047H97.5285V17.3201H77.9801C75.8966 17.3201 74.2076 15.6311 74.2076 13.5476V3.77347C74.2076 1.68998 75.8966 0.000973349 77.9801 0.000973349H97.5285Z" fill="black"/>
<path d="M110.389 12.3463L107.303 9.25975L99.0717 17.3201H105.416L110.389 12.3463Z" fill="#8C1C11"/>
<path d="M107.303 8.23089L110.389 5.14431L105.245 0H99.0717L107.303 8.23089Z" fill="#8C1C11"/>
<path d="M116.905 17.3201H123.936L115.019 8.74629L123.764 0.000973349H116.905L108.16 8.74629L116.905 17.3201Z" fill="black"/>
<path d="M72.4928 25.024V29.3109H55.1737C54.416 29.3109 53.8018 29.9251 53.8018 30.6828V36.3415C53.8018 37.0991 54.416 37.7133 55.1737 37.7133H72.4928V42.0002H54.1448C51.3037 42.0002 49.0005 39.697 49.0005 36.8559V30.1683C49.0005 27.3272 51.3037 25.024 54.1448 25.024H72.4928Z" fill="black"/>
<path d="M74.722 42.0002H79.5234V30.8542L87.4113 42.0002H89.812L98.0429 30.8542V42.0002H102.844V24.8525H96.6711L88.7831 36.17L81.0667 24.8525H74.722V42.0002Z" fill="black"/>
<path fill-rule="evenodd" clip-rule="evenodd" d="M105.245 24.8525V42.0002H124.793C126.877 42.0002 128.566 40.3112 128.566 38.2277V33.7693C128.566 31.6858 126.877 29.9968 124.793 29.9968H110.046V24.8525H105.245ZM109.875 37.7133V34.2838H123.079C123.647 34.2838 124.107 34.7444 124.107 35.3126V36.6844C124.107 37.2527 123.647 37.7133 123.079 37.7133H109.875Z" fill="black"/>
<path d="M129.938 24.8525V42.0002H134.739V24.8525H129.938Z" fill="black"/>
<path d="M160.289 25.024V29.3109H142.97C142.212 29.3109 141.598 29.9251 141.598 30.6828V36.3415C141.598 37.0991 142.212 37.7133 142.97 37.7133H160.289V42.0002H141.941C139.1 42.0002 136.797 39.697 136.797 36.8559V30.1683C136.797 27.3272 139.1 25.024 141.941 25.024H160.289Z" fill="black"/>
<path d="M162.004 42.0002H167.491L171.092 29.3109H181.381V42.0002H186.182V25.024H170.332C168.65 25.024 167.171 26.1376 166.706 27.7541L164.272 36.2205C163.79 37.8988 163.171 39.5352 162.424 41.1134L162.004 42.0002Z" fill="black"/>
<path d="M30.4126 9.40935C30.3944 1.62728 30.3459 0 30.3459 0L0 19.6799V33.7742L6.98068 33.7297L7.00291 41.9773H15.2273V24.8576L7.99221 29.4623L7.9602 24.1038L30.4126 9.40935Z" fill="#8C1C11"/>
<path d="M30.4229 28.2788C30.4229 21.1508 30.4139 15.4417 30.4139 15.4417L21.7237 20.9858V41.9507L30.4126 41.9773C30.4221 42.4169 30.4224 36.41 30.4228 29.859L30.4229 28.2788Z" fill="#8C1C11"/>
</svg>
